<?xml version="1.0" encoding="UTF-8"?>
<svg xmlns="http://www.w3.org/2000/svg" viewBox="610 745 705 705">
  <rect x="610" y="745" width="705" height="705" rx="140" fill="#111827"/>
  <g transform="translate(0,2350) scale(0.1,-0.1)" fill="#ffffff" stroke="none">
    <path d="M9683 14300 c1 -6 -45 -58 -103 -115 -58 -58 -187 -191 -288 -297
-284 -301 -529 -557 -716 -750 -94 -97 -247 -258 -341 -358 -93 -99 -243 -256
-333 -348 -89 -92 -172 -181 -185 -199 -12 -17 -91 -95 -174 -173 -84 -77
-153 -145 -153 -149 0 -4 -48 -55 -107 -112 -111 -108 -243 -241 -291 -294
-15 -16 -93 -94 -172 -172 -80 -77 -159 -156 -175 -175 -17 -18 -91 -92 -165
-163 -74 -72 -151 -149 -170 -171 -19 -21 -95 -95 -167 -163 -73 -68 -141
-137 -152 -155 -11 -17 -87 -93 -170 -170 -82 -76 -160 -153 -173 -171 -12
-19 -87 -93 -166 -167 -80 -73 -161 -155 -182 -183 -21 -27 -110 -115 -198
-195 -88 -80 -161 -151 -161 -157 -1 -10 262 -13 1282 -13 l1284 0 109 109
c60 60 125 126 144 148 19 21 96 98 170 170 74 72 160 158 190 190 30 33 104
104 164 159 59 54 118 114 131 132 13 19 90 96 172 173 81 76 159 155 173 174
45 63 229 225 257 225 13 0 34 5 45 11 14 8 23 8 31 0 6 -6 17 -11 25 -11 19
0 73 -43 100 -79 l23 -31 -1 -659 c0 -411 3 -669 10 -685 l10 -26 1510 0
c1201 0 1510 3 1510 13 0 6 46 54 103 106 56 52 125 119 152 150 28 30 109
111 180 180 72 69 148 146 170 170 22 24 101 103 175 175 74 72 153 151 175
175 54 60 137 144 280 284 66 64 145 143 175 175 30 31 107 108 170 170 155
152 210 210 210 222 0 7 -220 10 -660 10 -630 0 -663 1 -698 19 -45 23 -76 56
-102 107 -25 48 -25 60 0 116 14 32 63 88 162 185 79 77 163 163 188 190 25
27 104 105 175 174 72 69 148 146 170 170 22 25 105 108 185 186 80 78 161
159 180 180 19 21 96 98 170 170 74 73 151 150 170 170 19 21 96 97 170 170
74 73 153 152 175 175 22 24 99 101 170 170 72 70 150 149 175 175 25 27 101
103 170 170 69 67 152 150 185 185 33 36 115 116 182 179 68 63 123 120 123
127 0 9 -262 12 -1277 12 l-1278 0 -115 -115 c-63 -64 -173 -173 -245 -243
-71 -69 -148 -146 -170 -170 -22 -25 -101 -103 -175 -176 -74 -72 -151 -148
-170 -169 -19 -21 -98 -99 -175 -175 -77 -75 -153 -152 -170 -170 -66 -73
-202 -206 -239 -233 -32 -24 -49 -29 -96 -29 -47 0 -64 5 -96 28 -54 40 -63
52 -73 108 -5 27 -12 56 -16 66 -5 12 150 173 614 637 342 341 621 625 621
631 0 7 -437 10 -1310 10 -891 0 -1309 -3 -1307 -10z"/>
  </g>
</svg>
